<mxfile host="app.diagrams.net" agent="Mozilla/5.0 (Windows NT 10.0; Win64; x64) AppleWebKit/537.36 (KHTML, like Gecko) Chrome/131.0.0.0 Safari/537.36" version="25.0.3">
  <diagram name="Page-1" id="KeHe1Ov3iH-tw5udBrJ3">
    <mxGraphModel dx="1287" dy="680" grid="1" gridSize="10" guides="1" tooltips="1" connect="1" arrows="1" fold="1" page="1" pageScale="1" pageWidth="850" pageHeight="1100" math="0" shadow="0">
      <root>
        <mxCell id="0" />
        <mxCell id="1" parent="0" />
        <mxCell id="Cc5FhGHgRZ9Npfc-UWos-3" value="" style="edgeStyle=orthogonalEdgeStyle;rounded=0;orthogonalLoop=1;jettySize=auto;html=1;" edge="1" parent="1" source="Cc5FhGHgRZ9Npfc-UWos-1" target="Cc5FhGHgRZ9Npfc-UWos-2">
          <mxGeometry relative="1" as="geometry" />
        </mxCell>
        <mxCell id="Cc5FhGHgRZ9Npfc-UWos-1" value="start" style="strokeWidth=2;html=1;shape=mxgraph.flowchart.start_1;whiteSpace=wrap;" vertex="1" parent="1">
          <mxGeometry x="620" y="40" width="100" height="60" as="geometry" />
        </mxCell>
        <mxCell id="Cc5FhGHgRZ9Npfc-UWos-5" value="" style="edgeStyle=orthogonalEdgeStyle;rounded=0;orthogonalLoop=1;jettySize=auto;html=1;" edge="1" parent="1" source="Cc5FhGHgRZ9Npfc-UWos-2" target="Cc5FhGHgRZ9Npfc-UWos-4">
          <mxGeometry relative="1" as="geometry" />
        </mxCell>
        <mxCell id="Cc5FhGHgRZ9Npfc-UWos-2" value="กำหนดตัวแปร" style="whiteSpace=wrap;html=1;strokeWidth=2;" vertex="1" parent="1">
          <mxGeometry x="610" y="180" width="120" height="60" as="geometry" />
        </mxCell>
        <mxCell id="Cc5FhGHgRZ9Npfc-UWos-7" value="" style="edgeStyle=orthogonalEdgeStyle;rounded=0;orthogonalLoop=1;jettySize=auto;html=1;" edge="1" parent="1" source="Cc5FhGHgRZ9Npfc-UWos-4" target="Cc5FhGHgRZ9Npfc-UWos-6">
          <mxGeometry relative="1" as="geometry" />
        </mxCell>
        <mxCell id="Cc5FhGHgRZ9Npfc-UWos-4" value="รับค่าจากผู้ใช้1ค่า" style="shape=parallelogram;perimeter=parallelogramPerimeter;whiteSpace=wrap;html=1;fixedSize=1;strokeWidth=2;" vertex="1" parent="1">
          <mxGeometry x="610" y="320" width="120" height="60" as="geometry" />
        </mxCell>
        <mxCell id="Cc5FhGHgRZ9Npfc-UWos-13" value="" style="edgeStyle=orthogonalEdgeStyle;rounded=0;orthogonalLoop=1;jettySize=auto;html=1;" edge="1" parent="1" source="Cc5FhGHgRZ9Npfc-UWos-6" target="Cc5FhGHgRZ9Npfc-UWos-12">
          <mxGeometry relative="1" as="geometry" />
        </mxCell>
        <mxCell id="Cc5FhGHgRZ9Npfc-UWos-31" style="edgeStyle=orthogonalEdgeStyle;rounded=0;orthogonalLoop=1;jettySize=auto;html=1;" edge="1" parent="1" source="Cc5FhGHgRZ9Npfc-UWos-6">
          <mxGeometry relative="1" as="geometry">
            <mxPoint x="670" y="1430" as="targetPoint" />
            <Array as="points">
              <mxPoint x="920" y="515" />
              <mxPoint x="920" y="1350" />
              <mxPoint x="670" y="1350" />
            </Array>
          </mxGeometry>
        </mxCell>
        <mxCell id="Cc5FhGHgRZ9Npfc-UWos-6" value="ตัวเลขที่กรอกมากกว่าเท่ากับสอง" style="rhombus;whiteSpace=wrap;html=1;strokeWidth=2;" vertex="1" parent="1">
          <mxGeometry x="590" y="450" width="160" height="130" as="geometry" />
        </mxCell>
        <mxCell id="Cc5FhGHgRZ9Npfc-UWos-21" style="edgeStyle=orthogonalEdgeStyle;rounded=0;orthogonalLoop=1;jettySize=auto;html=1;" edge="1" parent="1" source="Cc5FhGHgRZ9Npfc-UWos-8">
          <mxGeometry relative="1" as="geometry">
            <mxPoint x="920" y="785" as="targetPoint" />
          </mxGeometry>
        </mxCell>
        <mxCell id="Cc5FhGHgRZ9Npfc-UWos-23" value="" style="edgeStyle=orthogonalEdgeStyle;rounded=0;orthogonalLoop=1;jettySize=auto;html=1;" edge="1" parent="1" source="Cc5FhGHgRZ9Npfc-UWos-8" target="Cc5FhGHgRZ9Npfc-UWos-22">
          <mxGeometry relative="1" as="geometry" />
        </mxCell>
        <mxCell id="Cc5FhGHgRZ9Npfc-UWos-8" value="เริ่มลูป j = 2 จนถึง j * j &amp;amp;lt;= i" style="rhombus;whiteSpace=wrap;html=1;strokeWidth=2;" vertex="1" parent="1">
          <mxGeometry x="590" y="720" width="160" height="130" as="geometry" />
        </mxCell>
        <mxCell id="Cc5FhGHgRZ9Npfc-UWos-10" value="จริง" style="text;html=1;align=center;verticalAlign=middle;whiteSpace=wrap;rounded=0;" vertex="1" parent="1">
          <mxGeometry x="660" y="570" width="60" height="30" as="geometry" />
        </mxCell>
        <mxCell id="Cc5FhGHgRZ9Npfc-UWos-14" value="" style="edgeStyle=orthogonalEdgeStyle;rounded=0;orthogonalLoop=1;jettySize=auto;html=1;" edge="1" parent="1" source="Cc5FhGHgRZ9Npfc-UWos-12" target="Cc5FhGHgRZ9Npfc-UWos-8">
          <mxGeometry relative="1" as="geometry" />
        </mxCell>
        <mxCell id="Cc5FhGHgRZ9Npfc-UWos-12" value="answer = 1&amp;nbsp;" style="rounded=0;whiteSpace=wrap;html=1;strokeWidth=2;" vertex="1" parent="1">
          <mxGeometry x="570" y="622" width="200" height="60" as="geometry" />
        </mxCell>
        <mxCell id="Cc5FhGHgRZ9Npfc-UWos-17" value="จริง" style="text;html=1;align=center;verticalAlign=middle;whiteSpace=wrap;rounded=0;" vertex="1" parent="1">
          <mxGeometry x="660" y="840.5" width="60" height="30" as="geometry" />
        </mxCell>
        <mxCell id="Cc5FhGHgRZ9Npfc-UWos-19" value="ไม่จริง" style="text;html=1;align=center;verticalAlign=middle;whiteSpace=wrap;rounded=0;" vertex="1" parent="1">
          <mxGeometry x="740" y="484" width="60" height="30" as="geometry" />
        </mxCell>
        <mxCell id="Cc5FhGHgRZ9Npfc-UWos-20" value="ไม่จริง" style="text;html=1;align=center;verticalAlign=middle;whiteSpace=wrap;rounded=0;" vertex="1" parent="1">
          <mxGeometry x="740" y="751" width="60" height="30" as="geometry" />
        </mxCell>
        <mxCell id="Cc5FhGHgRZ9Npfc-UWos-25" style="edgeStyle=orthogonalEdgeStyle;rounded=0;orthogonalLoop=1;jettySize=auto;html=1;" edge="1" parent="1" source="Cc5FhGHgRZ9Npfc-UWos-22">
          <mxGeometry relative="1" as="geometry">
            <mxPoint x="920" y="975" as="targetPoint" />
          </mxGeometry>
        </mxCell>
        <mxCell id="Cc5FhGHgRZ9Npfc-UWos-28" value="" style="edgeStyle=orthogonalEdgeStyle;rounded=0;orthogonalLoop=1;jettySize=auto;html=1;" edge="1" parent="1" source="Cc5FhGHgRZ9Npfc-UWos-22" target="Cc5FhGHgRZ9Npfc-UWos-27">
          <mxGeometry relative="1" as="geometry" />
        </mxCell>
        <mxCell id="Cc5FhGHgRZ9Npfc-UWos-22" value="ถ้า i % j == 0, answer = 0" style="rhombus;whiteSpace=wrap;html=1;strokeWidth=2;" vertex="1" parent="1">
          <mxGeometry x="590" y="910" width="160" height="130" as="geometry" />
        </mxCell>
        <mxCell id="Cc5FhGHgRZ9Npfc-UWos-24" value="จริง" style="text;html=1;align=center;verticalAlign=middle;whiteSpace=wrap;rounded=0;" vertex="1" parent="1">
          <mxGeometry x="680" y="1020" width="60" height="30" as="geometry" />
        </mxCell>
        <mxCell id="Cc5FhGHgRZ9Npfc-UWos-26" value="ไม่จริง" style="text;html=1;align=center;verticalAlign=middle;whiteSpace=wrap;rounded=0;" vertex="1" parent="1">
          <mxGeometry x="740" y="939.5" width="60" height="30" as="geometry" />
        </mxCell>
        <mxCell id="Cc5FhGHgRZ9Npfc-UWos-30" value="" style="edgeStyle=orthogonalEdgeStyle;rounded=0;orthogonalLoop=1;jettySize=auto;html=1;" edge="1" parent="1" source="Cc5FhGHgRZ9Npfc-UWos-27" target="Cc5FhGHgRZ9Npfc-UWos-29">
          <mxGeometry relative="1" as="geometry" />
        </mxCell>
        <mxCell id="Cc5FhGHgRZ9Npfc-UWos-27" value="ถ้า answer != 0, พิมพ์ i" style="shape=parallelogram;perimeter=parallelogramPerimeter;whiteSpace=wrap;html=1;fixedSize=1;strokeWidth=2;" vertex="1" parent="1">
          <mxGeometry x="590" y="1100" width="160" height="60" as="geometry" />
        </mxCell>
        <mxCell id="Cc5FhGHgRZ9Npfc-UWos-29" value="เบรก" style="whiteSpace=wrap;html=1;strokeWidth=2;" vertex="1" parent="1">
          <mxGeometry x="610" y="1240" width="120" height="60" as="geometry" />
        </mxCell>
        <mxCell id="Cc5FhGHgRZ9Npfc-UWos-32" value="end" style="strokeWidth=2;html=1;shape=mxgraph.flowchart.start_1;whiteSpace=wrap;" vertex="1" parent="1">
          <mxGeometry x="620" y="1430" width="100" height="60" as="geometry" />
        </mxCell>
      </root>
    </mxGraphModel>
  </diagram>
</mxfile>
